<?xml version="1.0" standalone="no"?>
<!DOCTYPE svg PUBLIC "-//W3C//DTD SVG 20010904//EN"
 "http://www.w3.org/TR/2001/REC-SVG-20010904/DTD/svg10.dtd">
<svg version="1.0" xmlns="http://www.w3.org/2000/svg"
 width="600.000000pt" height="287.000000pt" viewBox="0 0 600.000000 287.000000"
 preserveAspectRatio="xMidYMid meet">

<g transform="translate(0.000000,287.000000) scale(0.100000,-0.100000)"
fill="#000000" stroke="none">
<path d="M5088 2674 c-261 -47 -435 -194 -533 -451 -95 -248 -238 -434 -437
-570 l-70 -48 106 -3 106 -3 0 -204 0 -205 175 0 175 0 0 205 0 205 135 0 135
0 0 -281 0 -280 58 62 c103 113 272 222 437 284 210 79 327 182 411 358 71
151 82 326 29 483 -83 249 -280 409 -557 454 -75 12 -73 12 -170 -6z"/>
<path d="M257 1703 c-4 -3 -7 -111 -7 -240 l0 -233 60 0 60 0 0 95 0 95 80 0
80 0 0 -95 0 -95 60 0 60 0 -2 238 -3 237 -57 3 -58 3 0 -96 0 -95 -80 0 -80
0 0 95 0 95 -53 0 c-30 0 -57 -3 -60 -7z"/>
<path d="M809 1687 c-67 -36 -103 -100 -108 -194 -2 -42 2 -94 10 -120 16 -60
80 -127 134 -142 124 -34 228 12 275 121 19 44 22 65 18 133 -6 110 -47 178
-125 211 -53 23 -153 18 -204 -9z m172 -103 c50 -45 49 -184 -2 -235 -23 -23
-85 -25 -116 -4 -60 42 -55 204 8 249 28 20 82 15 110 -10z"/>
<path d="M1245 1695 c-40 -21 -63 -52 -70 -97 -14 -82 26 -134 137 -177 67
-27 83 -54 48 -83 -27 -22 -40 -22 -110 -4 -30 8 -55 14 -56 13 -6 -11 -22
-93 -18 -98 9 -15 119 -31 170 -26 97 10 154 62 154 140 0 73 -41 121 -130
153 -63 23 -89 48 -73 72 10 17 71 22 133 11 22 -4 25 1 34 39 6 31 6 46 -3
55 -20 20 -180 21 -216 2z"/>
<path d="M1540 1471 l0 -241 60 0 60 0 0 70 0 70 48 0 c61 0 129 34 159 79 28
42 31 120 5 171 -29 60 -85 82 -218 88 l-114 5 0 -242z m214 107 c36 -51 4
-108 -59 -108 l-35 0 0 65 0 65 39 0 c30 0 44 -6 55 -22z"/>
<path d="M1947 1703 c-4 -3 -7 -111 -7 -240 l0 -233 60 0 60 0 0 240 0 240
-53 0 c-30 0 -57 -3 -60 -7z"/>
<path d="M2100 1655 l0 -55 60 0 60 0 0 -185 0 -185 60 0 60 0 0 185 0 185 55
0 55 0 0 55 0 55 -175 0 -175 0 0 -55z"/>
<path d="M2573 1702 c-17 -10 -66 -141 -118 -309 -25 -81 -45 -151 -45 -155 0
-5 27 -8 59 -8 l59 0 14 43 15 42 76 3 77 3 11 -46 11 -45 60 0 60 0 -7 36
c-10 58 -95 313 -125 382 l-29 62 -53 0 c-29 0 -58 -4 -65 -8z m86 -201 c12
-38 21 -72 21 -75 0 -3 -23 -6 -51 -6 -40 0 -50 3 -46 14 3 8 11 34 17 58 12
43 27 78 34 78 2 0 13 -31 25 -69z"/>
<path d="M2890 1470 l0 -240 150 0 150 0 0 50 0 50 -90 0 -90 0 -2 188 -3 187
-57 3 -58 3 0 -241z"/>
<path d="M3890 1532 c-183 -70 -283 -136 -364 -238 -94 -121 -139 -252 -140
-409 -1 -120 13 -184 64 -290 159 -331 551 -466 885 -305 84 40 194 131 247
204 l28 39 0 214 0 213 -175 0 -175 0 -2 -212 -3 -213 -137 -3 -138 -3 -2 518
-3 518 -85 -33z"/>
<path d="M397 1136 c-88 -24 -137 -78 -158 -173 -17 -72 -1 -170 35 -222 46
-66 136 -100 230 -86 69 11 79 22 71 79 -7 43 -10 47 -29 41 -124 -41 -186 0
-186 123 0 75 18 115 60 132 28 12 85 9 123 -6 11 -4 16 5 21 31 4 20 10 43
13 51 11 30 -107 50 -180 30z"/>
<path d="M630 900 l0 -240 155 0 155 0 0 50 0 50 -95 0 -95 0 0 45 0 45 80 0
80 0 0 50 0 50 -80 0 -80 0 0 45 0 45 96 0 95 0 -3 48 -3 47 -152 3 -153 3 0
-241z"/>
<path d="M990 900 l0 -240 55 0 55 0 0 132 0 133 48 -76 c26 -41 65 -101 87
-132 l40 -57 58 0 57 0 0 241 0 240 -52 -3 -53 -3 -5 -145 -5 -145 -35 54
c-19 30 -58 95 -85 145 l-50 91 -58 3 -57 3 0 -241z"/>
<path d="M1437 1133 c-4 -3 -7 -26 -7 -50 l0 -43 60 0 60 0 0 -190 0 -190 60
0 60 0 2 188 3 187 58 3 57 3 0 49 0 50 -173 0 c-96 0 -177 -3 -180 -7z"/>
<path d="M1830 901 l0 -241 60 0 60 0 0 85 c0 62 3 85 13 85 28 0 55 -32 82
-99 l28 -71 128 0 129 0 11 45 11 45 78 0 77 0 13 -45 13 -45 59 0 60 0 -6 34
c-10 51 -100 324 -129 389 l-26 57 -61 0 -61 0 -24 -55 c-25 -55 -90 -248
-121 -358 -9 -33 -20 -55 -24 -50 -5 4 -20 37 -35 73 -15 36 -36 77 -46 92
-19 27 -19 27 1 38 49 26 66 128 31 186 -30 50 -80 67 -208 72 l-113 5 0 -242z
m206 118 c36 -30 2 -89 -53 -89 l-33 0 0 56 0 57 36 -6 c20 -3 42 -11 50 -18z
m422 -87 c12 -38 22 -71 22 -75 0 -4 -22 -7 -50 -7 -27 0 -50 3 -50 7 0 16 44
143 50 143 3 0 16 -31 28 -68z"/>
<path d="M2690 900 l0 -240 145 0 145 0 0 50 0 50 -85 0 -85 0 -2 188 -3 187
-57 3 -58 3 0 -241z"/>
<path d="M1510 541 c-25 -47 -2 -56 30 -11 21 30 21 30 1 30 -11 0 -25 -9 -31
-19z"/>
<path d="M2542 547 c-14 -17 2 -42 22 -34 20 8 20 21 2 36 -10 8 -16 8 -24 -2z"/>
<path d="M2627 553 c-4 -3 -7 -56 -7 -117 0 -120 12 -156 51 -156 22 0 26 25
4 34 -12 4 -15 28 -15 126 0 93 -3 120 -13 120 -8 0 -17 -3 -20 -7z"/>
<path d="M2720 432 c0 -132 5 -152 42 -152 22 0 24 26 3 34 -12 4 -15 28 -15
126 0 100 -2 120 -15 120 -13 0 -15 -21 -15 -128z"/>
<path d="M250 414 l0 -137 61 7 c34 4 69 12 79 18 30 19 50 64 50 113 0 90
-48 135 -145 135 l-45 0 0 -136z m105 96 c33 -12 59 -72 51 -114 -10 -47 -43
-76 -88 -76 l-38 0 0 93 c0 52 3 97 7 100 9 10 38 9 68 -3z"/>
<path d="M742 418 c3 -110 6 -133 18 -133 11 0 16 14 18 53 3 44 6 52 22 52
14 0 30 -18 51 -55 17 -30 37 -55 45 -55 20 0 17 16 -12 70 l-26 48 21 21 c21
21 27 55 15 86 -10 25 -58 45 -109 45 l-46 0 3 -132z m92 92 c20 -7 26 -17 26
-39 0 -32 -22 -51 -59 -51 -18 0 -21 6 -21 50 0 54 6 59 54 40z"/>
<path d="M1933 515 c-35 -35 -35 -36 -31 -105 3 -56 8 -74 27 -94 39 -41 141
-48 141 -10 0 13 -7 15 -32 11 -48 -7 -77 8 -94 49 -35 82 13 162 89 150 33
-6 38 -4 35 11 -2 14 -15 19 -51 21 -43 3 -51 0 -84 -33z"/>
<path d="M502 470 c-22 -9 -23 -14 -20 -97 2 -70 6 -88 18 -88 12 0 16 18 20
80 5 78 6 80 33 83 15 2 27 9 27 18 0 16 -42 18 -78 4z"/>
<path d="M957 473 c-18 -18 -6 -32 23 -27 34 7 60 -9 60 -37 0 -15 -8 -19 -39
-19 -43 0 -63 -17 -63 -56 0 -46 56 -67 117 -44 27 10 27 12 23 79 -4 85 -23
111 -78 111 -20 0 -40 -3 -43 -7z m83 -133 c0 -27 -3 -30 -30 -30 -18 0 -33 6
-36 15 -11 27 4 45 36 45 27 0 30 -3 30 -30z"/>
<path d="M1142 470 c-22 -9 -23 -14 -20 -97 2 -70 6 -88 18 -88 12 0 16 18 20
80 5 76 6 80 29 83 37 6 51 -22 51 -101 0 -50 3 -68 13 -65 7 3 14 33 17 84 5
73 7 79 28 82 41 6 52 -14 52 -95 0 -66 2 -74 18 -71 14 3 17 15 17 82 0 71
-2 80 -25 98 -18 15 -33 18 -60 14 -41 -7 -43 -7 -95 -1 -22 3 -50 0 -63 -5z"/>
<path d="M1449 451 c-23 -23 -29 -38 -29 -71 0 -33 6 -48 29 -71 60 -59 141
-18 141 71 0 89 -81 130 -141 71z m85 -17 c33 -33 12 -124 -29 -124 -25 0 -45
31 -45 70 0 39 20 70 45 70 7 0 21 -7 29 -16z"/>
<path d="M1648 473 c-16 -4 -18 -17 -18 -100 0 -71 3 -94 13 -91 8 3 13 31 15
79 3 72 11 89 42 89 34 0 45 -19 50 -90 3 -39 10 -70 15 -70 6 0 11 33 13 75
2 64 0 77 -18 95 -19 19 -67 25 -112 13z"/>
<path d="M2123 473 c-7 -2 -13 -11 -13 -20 0 -10 6 -12 21 -8 36 12 69 -3 69
-30 0 -22 -4 -25 -38 -25 -45 0 -62 -14 -62 -51 0 -48 70 -76 121 -49 35 19
23 157 -15 182 -12 9 -64 9 -83 1z m77 -133 c0 -27 -3 -30 -29 -30 -34 0 -45
12 -36 40 4 14 15 20 36 20 26 0 29 -3 29 -30z"/>
<path d="M2308 473 c-16 -4 -18 -17 -18 -100 0 -71 3 -94 13 -91 8 3 13 31 15
82 3 76 3 77 32 83 38 7 40 33 3 32 -16 -1 -36 -3 -45 -6z"/>
<path d="M2432 470 c-22 -9 -23 -14 -20 -97 2 -70 6 -88 18 -88 12 0 16 18 20
80 5 78 6 80 33 83 15 2 27 9 27 18 0 16 -42 18 -78 4z"/>
<path d="M2542 383 c2 -66 7 -98 16 -101 9 -3 12 21 12 97 0 84 -3 101 -15
101 -13 0 -15 -15 -13 -97z"/>
<path d="M2833 456 c-24 -21 -28 -32 -28 -76 0 -44 4 -55 28 -76 61 -52 137
-10 137 77 0 86 -76 127 -137 75z m74 -14 c22 -14 33 -60 22 -89 -26 -69 -89
-50 -89 27 0 53 33 84 67 62z"/>
<path d="M582 317 c-10 -11 -9 -17 3 -27 24 -20 45 4 24 26 -14 13 -17 13 -27
1z"/>
</g>
</svg>
